<svg xmlns="http://www.w3.org/2000/svg" viewBox="0 0 24 30" x="0px" y="0px"><title>unplug</title><g><path d="M8.46,20.53a4.94,4.94,0,0,1-3.53-1.46,5,5,0,0,1,0-7.07l1.41-1.41a1,1,0,0,1,1.42,0l5.65,5.65a1,1,0,0,1,0,1.42L12,19.07A5,5,0,0,1,8.46,20.53ZM7.05,12.71l-.71.7a3,3,0,0,0,4.25,4.25l.7-.71Z"/><path d="M17,13.71a1,1,0,0,1-.71-.3L10.59,7.76a1,1,0,0,1,0-1.42L12,4.93A5,5,0,1,1,19.07,12l-1.41,1.41A1,1,0,0,1,17,13.71ZM12.71,7.05,17,11.29l.71-.7a3,3,0,0,0,0-4.25,3.09,3.09,0,0,0-4.25,0Z"/><path d="M8.46,13.71a1,1,0,0,1-.7-.3,1,1,0,0,1,0-1.41L9.88,9.88a1,1,0,0,1,1.41,1.41L9.17,13.41A1,1,0,0,1,8.46,13.71Z"/><path d="M11.29,16.54a1,1,0,0,1-.7-.3,1,1,0,0,1,0-1.41l2.12-2.12a1,1,0,0,1,1.41,1.41L12,16.24A1,1,0,0,1,11.29,16.54Z"/><path d="M18.36,6.64a1,1,0,0,1-.71-.29,1,1,0,0,1,0-1.42L21.79.79a1,1,0,1,1,1.42,1.42L19.07,6.35A1,1,0,0,1,18.36,6.64Z"/><path d="M2,23a1,1,0,0,1-.71-.29,1,1,0,0,1,0-1.42l3.64-3.64a1,1,0,0,1,1.42,1.42L2.71,22.71A1,1,0,0,1,2,23Z"/></g><text x="0" y="39" fill="#000000" font-size="5px" font-weight="bold" font-family="'Helvetica Neue', Helvetica, Arial-Unicode, Arial, Sans-serif">Created by tezar tantular</text><text x="0" y="44" fill="#000000" font-size="5px" font-weight="bold" font-family="'Helvetica Neue', Helvetica, Arial-Unicode, Arial, Sans-serif">from the Noun Project</text></svg>